<?xml version="1.0" encoding="UTF-8"?>
<svg version="1.1" viewBox="0 0 2048 611" width="1320" height="394" xmlns="http://www.w3.org/2000/svg">
<path transform="translate(918,210)" d="m0 0h245l7 3 3 6v92l-16 8-32 13-31 11-38 11-16 4h-123l-5-3-3-5v-131l3-6z" fill="#100E0E"/>
<path transform="translate(916,194)" d="m0 0h245l9 3 8 6 5 10 1 4 1 24 27 2 16 3 13 5 7 7 1 2v10l-5 9-11 11-17 12-14 8-19 10-30 13-29 11-40 13-44 12-41 9-34 6-37 5-25 2h-41l-22-3-15-5-8-6-3-5v-8l5-9 10-11 14-10 11-7 24-13 15-7 1-88 2-8 5-8 7-6zm2 16-6 3-3 6v131l4 6 4 2h123l27-7 39-12 32-12 23-10 12-6v-92l-3-6-7-3z" fill="#38BBC4"/>
<path transform="translate(367,250)" d="m0 0h51l18 2 10 3 11 7 7 8 5 9 3 13v14l-4 13-6 8-8 7-10 5-15 4-12 1h-20v41l-5 2h-27l-2-1v-134z" fill="#FDFEFE"/>
<path transform="translate(1181,328)" d="m0 0h3v50l-3 9-7 8-10 5h-89l1 22 3 5 20 11v1h-119v-2l19-10 3-4h28l4-1-30-4-1-1v-17h-89l-3-3 37-4 38-6 44-9h3l2 6 7 1 2-2v-8l52-15 6-2 61-1 6-2 3-6 1-17z" fill="#38BBC4"/>
<path transform="translate(619,250)" d="m0 0h29l4 4 19 63 6 19 20-65 6-19 3-2h28l4 2-3 12-10 28-12 36-19 56-1 2-6 1h-25l-3-1-14-41-30-90 1-4z" fill="#FDFEFE"/>
<path transform="translate(1613,251)" d="m0 0h10l12 11 31 31 1 5-2 3-6 1-39-39h-4l2 4 43 43 7-6 51-51 4-2h9l5 3 3 5 1 6-4 8-45 45 6 7 40 40 3 6-1 7-3 5-4 3-7 1-7-3-56-56-4 1-42 42-1 4 5-3 34-34 4-3h5l3 4-1 5-40 40-9 3-7-3-5-6-1-4 3-9 46-46-6-7-40-40-2-3v-10l6-7z" fill="#FDFEFE"/>
<path transform="translate(499,250)" d="m0 0h91l3 1v29l-1 1h-31l-1 105-5 1h-26l-3-5v-100l-31-1-1-2v-26l1-2z" fill="#FDFEFE"/>
<path transform="translate(313,250)" d="m0 0h23l5 2v134l-2 1h-29l-3-2v-133z" fill="#FDFEFE"/>
<path transform="translate(1356,250)" d="m0 0h73l5 2 2 5-3 4-3 1-77 1-2 3h81l3 3 1 3-3 5h-82v18l1 8 1 1 36 1 4 4-1 5-2 2h-37l-6-2-6-7-1-2v-27l-4 2-1 103-4 4-4-1-3-4v-102l3-7 7-6 6-1 1-6 6-7z" fill="#FDFEFE"/>
<path transform="translate(1459,251)" d="m0 0h8l6 3 3 5 1 4 1 95 1 1 59 1 5 2 5 5 1 3v7l-4 6-4 3-6 1h-54l-3-1-2-4 1-4 2-2 59-1-1-3-59-1-6-3-5-6-2-7v-93l-3 1-1 58-3 3-6-1-2-2v-60l4-7z" fill="#FDFEFE"/>
<path transform="translate(892,309)" d="m0 0h2l1 69-1 1-22-1-17-3-11-4-8-7-1-2v-9l4-7 9-10 13-10 21-12z" fill="#100E0E"/>
<path transform="translate(1572,251)" d="m0 0h9l6 4 3 6v122l-2 3-5 1-4-4v-121h-4l-1 59-3 3-6-1-2-4v-43l1-17 6-7z" fill="#FDFEFE"/>
<path transform="translate(918,217)" d="m0 0h46l-4 6-11 14-8 13-12 23-7 20-5 23h-1v-94z" fill="#38BBC4"/>
<path transform="translate(1184,244)" d="m0 0 16 2 17 5 8 7 1 2v9l-4 8-12 12-23 15h-3z" fill="#100E0E"/>
<path transform="translate(399,280)" d="m0 0h20l9 2 7 4 4 6 1 6-3 9-4 4-10 3h-26v-33z" fill="#100E0E"/>
<path transform="translate(1352,321)" d="m0 0h38l3 3v5l-4 3-35 1-2 2-1 47-5 5-5-2-1-1v-51l3-6 6-5z" fill="#FDFEFE"/>
<path transform="translate(1725,262)" d="m0 0 5 1-3 5-48 48v5l50 50 1 3-3 2-57-57 2-4z" fill="#100E0E"/>
</svg>
